Coordinates
version=1
nRows=16
nColumns=40
inDegrees=yes

Units are S.I. units (second, meters, Newtons, ...)
If the header above contains a line with 'inDegrees', this indicates whether rotational values are in degrees (yes) or radians (no).

endheader
time	pelvis_tilt	pelvis_list	pelvis_rotation	pelvis_tx	pelvis_ty	pelvis_tz	hip_flexion_r	hip_adduction_r	hip_rotation_r	knee_angle_r	knee_angle_r_beta	ankle_angle_r	subtalar_angle_r	mtp_angle_r	hip_flexion_l	hip_adduction_l	hip_rotation_l	knee_angle_l	knee_angle_l_beta	ankle_angle_l	subtalar_angle_l	mtp_angle_l	lumbar_extension	lumbar_bending	lumbar_rotation	arm_flex_r	arm_add_r	arm_rot_r	elbow_flex_r	pro_sup_r	wrist_flex_r	wrist_dev_r	arm_flex_l	arm_add_l	arm_rot_l	elbow_flex_l	pro_sup_l	wrist_flex_l	wrist_dev_l
      4.32500000	     14.45917782	     -8.78297064	    -12.51324730	     -0.33741879	      0.89422886	     -0.99302606	     74.76900113	     13.63278985	    -12.14057114	     37.19241189	      0.64913004	     -8.65280862	      0.00000000	      0.00000000	     23.94847597	    -11.46879556	    -10.02126808	     81.24053171	      1.41791476	     33.44493456	      0.00000000	      0.00000000	    -25.11876637	      4.46954183	      7.41470373	     89.89463914	      1.19376515	     29.43828234	     33.87888500	     80.32950699	      0.00000000	      0.00000000	     89.94869699	    -22.87714240	     26.51387207	     41.63160082	     84.72820404	      0.00000000	      0.00000000
      4.33000000	     14.55318901	     -8.80431456	    -12.63117005	     -0.33811812	      0.89567212	     -0.99254091	     74.50037878	     13.75664623	    -12.04278849	     37.10510663	      0.64760628	     -8.74479661	      0.00000000	      0.00000000	     23.69715444	    -11.50813891	    -10.13189582	     80.94834428	      1.41281513	     33.32971637	      0.00000000	      0.00000000	    -25.26762902	      4.44144868	      7.52366084	     89.89420565	      1.22371816	     29.44513011	     33.89432427	     80.35395830	      0.00000000	      0.00000000	     89.94871738	    -22.90058483	     26.44233633	     41.68027924	     84.73039903	      0.00000000	      0.00000000
      4.33500000	     14.39236142	     -8.87663470	    -12.22811321	     -0.33854625	      0.89622658	     -0.99358550	     74.57916315	     13.34569961	    -12.03415868	     37.14483859	      0.64829973	     -8.70828767	      0.00000000	      0.00000000	     23.99013413	    -11.33522444	     -9.64826486	     80.80477678	      1.41030941	     33.31826760	      0.00000000	      0.00000000	    -25.12333625	      4.78394267	      7.21255908	     89.89377374	      1.16560086	     29.45985456	     33.95204632	     80.36830134	      0.00000000	      0.00000000	     89.94852083	    -22.83254178	     26.42036049	     41.66731558	     84.73328123	      0.00000000	      0.00000000
      4.34000000	     14.39931851	     -8.64931877	    -12.20151174	     -0.33905364	      0.89726497	     -0.99390895	     74.47790183	     13.09137651	    -12.12352714	     37.23338725	      0.64984520	     -8.61568390	      0.00000000	      0.00000000	     23.98412402	    -10.86226043	     -9.47225969	     80.53901667	      1.40567102	     33.15518397	      0.00000000	      0.00000000	    -25.10393546	      4.65882106	      7.09535022	     89.89288464	      1.23427875	     29.54759967	     33.96271330	     80.38725718	      0.00000000	      0.00000000	     89.94852476	    -22.88530143	     26.37190375	     41.63845986	     84.73488678	      0.00000000	      0.00000000
      4.34500000	     14.32027852	     -8.68979365	    -12.38295908	     -0.33975749	      0.89808572	     -0.99307135	     74.48224720	     13.26460189	    -12.09877548	     37.27694789	      0.65060548	     -8.58777468	      0.00000000	      0.00000000	     23.97920954	    -10.98508144	     -9.52017244	     80.38206179	      1.40293164	     33.08776149	      0.00000000	      0.00000000	    -25.05057451	      4.64702275	      7.23580525	     89.89247684	      1.30228321	     29.55952672	     33.98514677	     80.39628380	      0.00000000	      0.00000000	     89.94860777	    -22.90375406	     26.31187031	     41.68987437	     84.73112884	      0.00000000	      0.00000000
      4.35000000	     14.28059987	     -8.77275516	    -12.16868757	     -0.34036433	      0.89925249	     -0.99355716	     74.37277117	     13.06102552	    -12.08099749	     37.26403128	      0.65038004	     -8.56625909	      0.00000000	      0.00000000	     24.00769495	    -10.98988589	     -9.38003066	     80.13852468	      1.39868111	     32.97408889	      0.00000000	      0.00000000	    -25.05956011	      4.86893149	      7.09043566	     89.89192916	      1.26975196	     29.59363361	     33.99288057	     80.41026957	      0.00000000	      0.00000000	     89.94852532	    -22.87773962	     26.28294572	     41.70333268	     84.73233108	      0.00000000	      0.00000000
      4.35500000	     14.25594190	     -8.81690022	    -12.30820703	     -0.34095558	      0.90040120	     -0.99298962	     74.25540561	     13.15850603	    -12.16060807	     37.27406773	      0.65055521	     -8.51468986	      0.00000000	      0.00000000	     23.91147314	    -11.01284165	     -9.32079148	     79.93105071	      1.39506001	     32.86081638	      0.00000000	      0.00000000	    -25.06740350	      4.91337209	      7.23821282	     89.89129055	      1.35784224	     29.65787075	     34.00303162	     80.42433757	      0.00000000	      0.00000000	     89.94840619	    -22.92373026	     26.23970484	     41.69494935	     84.73075870	      0.00000000	      0.00000000
      4.36000000	     14.42631484	     -8.69789196	    -12.71316197	     -0.34170637	      0.90200751	     -0.99183721	     73.92568301	     13.51377061	    -11.87118057	     37.24133247	      0.64998387	     -8.54777740	      0.00000000	      0.00000000	     23.45244130	    -11.11319448	     -9.92816821	     79.53554003	      1.38815705	     32.63412101	      0.00000000	      0.00000000	    -25.24557260	      4.58206337	      7.53805503	     89.89178199	      1.40177220	     29.81302208	     33.93282578	     80.46585379	      0.00000000	      0.00000000	     89.94855884	    -22.92318419	     26.17604494	     41.72914338	     84.74158201	      0.00000000	      0.00000000
      4.36500000	     14.35339842	     -8.71545466	    -12.65574288	     -0.34235729	      0.90296204	     -0.99192376	     73.88343875	     13.41723250	    -11.82439065	     37.27957100	      0.65065126	     -8.52924410	      0.00000000	      0.00000000	     23.49981210	    -11.09098260	     -9.85990135	     79.34075443	      1.38475740	     32.58633603	      0.00000000	      0.00000000	    -25.20249058	      4.69371687	      7.51517908	     89.89204431	      1.40584020	     29.81417911	     34.00016725	     80.47263005	      0.00000000	      0.00000000	     89.94853142	    -22.89149826	     26.15520825	     41.75076546	     84.73944092	      0.00000000	      0.00000000
      4.37000000	     14.16601461	     -8.65492405	    -12.67307738	     -0.34302725	      0.90355387	     -0.99177652	     73.99083272	     13.32845406	    -11.82533140	     37.32075011	      0.65136997	     -8.50074600	      0.00000000	      0.00000000	     23.67915933	    -10.99630061	     -9.75203865	     79.12013107	      1.38090679	     32.51032157	      0.00000000	      0.00000000	    -25.01137627	      4.71669461	      7.50803630	     89.89192974	      1.39760469	     29.82557506	     34.06809320	     80.48488153	      0.00000000	      0.00000000	     89.94842465	    -22.90316214	     26.11692151	     41.75131535	     84.73879621	      0.00000000	      0.00000000
      4.37500000	     14.26716891	     -8.82285415	    -13.00995066	     -0.34374127	      0.90535491	     -0.99044289	     73.66516788	     13.73893567	    -11.82483141	     37.23327121	      0.64984317	     -8.57909057	      0.00000000	      0.00000000	     23.29974116	    -11.37206005	    -10.06753155	     78.82901404	      1.37582584	     32.37019564	      0.00000000	      0.00000000	    -25.19323611	      4.69177720	      7.84591382	     89.89157555	      1.45851025	     29.99376525	     34.01749833	     80.52632530	      0.00000000	      0.00000000	     89.94846457	    -22.91460087	     26.07925507	     41.75717752	     84.73999458	      0.00000000	      0.00000000
      4.38000000	     14.10389347	     -8.68303065	    -12.75824408	     -0.34436777	      0.90602973	     -0.99122500	     73.76927365	     13.30149406	    -11.88489896	     37.35243296	      0.65192294	     -8.49792176	      0.00000000	      0.00000000	     23.57435971	    -10.97752846	     -9.69211621	     78.61263149	      1.37204925	     32.25497811	      0.00000000	      0.00000000	    -25.00355211	      4.75632358	      7.57123540	     89.89150213	      1.40709831	     30.07744623	     34.12398166	     80.55847607	      0.00000000	      0.00000000	     89.94850394	    -22.86765973	     26.05073902	     41.74038673	     84.74774769	      0.00000000	      0.00000000
      4.38500000	     14.27680222	     -8.34733379	    -12.64068323	     -0.34484904	      0.90761882	     -0.99182809	     73.56398284	     12.89994056	    -11.76317844	     37.65032501	      0.65712214	     -8.28828333	      0.00000000	      0.00000000	     23.31238178	    -10.41110435	     -9.72272494	     78.17248072	      1.36436717	     32.03820375	      0.00000000	      0.00000000	    -25.10485548	      4.50008487	      7.36373806	     89.89169902	      1.40010470	     30.14209794	     34.14002050	     80.59078122	      0.00000000	      0.00000000	     89.94860756	    -22.83498578	     25.98960809	     41.79315075	     84.75274008	      0.00000000	      0.00000000
      4.39000000	     13.95479208	     -8.64918696	    -13.14659362	     -0.34575957	      0.90823210	     -0.98977678	     73.68136802	     13.58064459	    -11.72373197	     37.46227207	      0.65383999	     -8.34742101	      0.00000000	      0.00000000	     23.46319222	    -11.20483043	    -10.10576431	     78.12203416	      1.36348671	     32.01016402	      0.00000000	      0.00000000	    -24.88102962	      4.63472914	      7.86849718	     89.89138274	      1.49493477	     30.19033578	     34.11781135	     80.61432969	      0.00000000	      0.00000000	     89.94846254	    -22.90855569	     25.96000691	     41.83372470	     84.75451085	      0.00000000	      0.00000000
      4.39500000	     13.70679232	     -8.59114848	    -12.74601770	     -0.34631529	      0.90877590	     -0.99088541	     73.85584451	     13.02864410	    -11.85325848	     37.54546528	      0.65529199	     -8.37624903	      0.00000000	      0.00000000	     23.89225656	    -10.80532586	     -9.46254238	     77.95282314	      1.36053343	     31.89983239	      0.00000000	      0.00000000	    -24.60645306	      4.86909962	      7.54190202	     89.89184405	      1.39387903	     30.22031586	     34.20487750	     80.63431021	      0.00000000	      0.00000000	     89.94843437	    -22.78909559	     25.96937406	     41.78227929	     84.75678182	      0.00000000	      0.00000000
      4.40000000	     13.67564916	     -8.72529274	    -13.20301979	     -0.34715390	      0.91026603	     -0.98918924	     73.68038501	     13.52168043	    -11.84033263	     37.47614840	      0.65408218	     -8.45822835	      0.00000000	      0.00000000	     23.65181301	    -11.32693290	     -9.98637698	     77.70096382	      1.35613765	     31.69746247	      0.00000000	      0.00000000	    -24.64422205	      4.80434691	      7.97749525	     89.89178209	      1.46844622	     30.30264749	     34.13905110	     80.65599561	      0.00000000	      0.00000000	     89.94849926	    -22.84983997	     25.95996395	     41.88426855	     84.76358008	      0.00000000	      0.00000000
